<mxfile host="app.diagrams.net" modified="2023-06-29T12:32:33.030Z" agent="Mozilla/5.0 (Macintosh; Intel Mac OS X 10_15_7) AppleWebKit/537.36 (KHTML, like Gecko) Chrome/114.0.0.0 Safari/537.36" version="21.5.1" etag="GCCIZDJj6Q35omBLHq7z" type="github">
  <diagram name="PÃ¡gina-1" id="TF_5ertuy2BQH2li5FN0">
    <mxGraphModel>
      <root>
        <mxCell id="0" />
        <mxCell id="1" parent="0" />
      </root>
    </mxGraphModel>
  </diagram>
</mxfile>
